<svg width="2560" height="2560" viewBox="0 0 2560 2560" fill="none" xmlns="http://www.w3.org/2000/svg">
<rect width="2560" height="2560" fill="white"/>
<g clip-path="url(#clip0_6226_10)">
<path d="M511 632.502C511 590.88 511 570.081 518.846 554.064C526.356 538.732 538.744 526.344 554.076 518.834C570.081 511 590.88 511 632.502 511H1927.5C1969.11 511 1989.93 511 2005.94 518.846C2021.26 526.356 2033.64 538.744 2041.17 554.076C2049 570.081 2049 590.892 2049 632.514V1927.51C2049 1969.12 2049 1989.94 2041.17 2005.95C2033.64 2021.27 2021.26 2033.66 2005.94 2041.18C1989.93 2049.01 1969.11 2049.01 1927.5 2049.01H632.502C590.88 2049.01 570.081 2049.01 554.064 2041.18C538.732 2033.66 526.344 2021.27 518.834 2005.95C510.988 1989.94 510.988 1969.12 510.988 1927.51V632.502H511Z" fill="#0000FF"/>
</g>
<defs>
<clipPath id="clip0_6226_10">
<rect width="1538" height="1538" fill="white" transform="translate(511 511)"/>
</clipPath>
</defs>
</svg>
