<svg width="1000" height="1001" viewBox="0 0 1000 1001" fill="none" xmlns="http://www.w3.org/2000/svg">
<path d="M686.159 127.019C647.448 57.9457 574.55 14.6374 495.38 13.3023V13.3023C413.755 11.9257 337.513 55.3461 297.396 126.447L265.842 182.372C245.774 217.939 216.306 247.298 180.665 267.234L124.401 298.706C54.846 337.614 11.4067 410.746 10.5159 490.439L10.4303 498.097C9.52026 579.506 53.1373 654.913 124.158 694.716L178.015 724.9C213.776 744.941 243.306 774.471 263.347 810.232L293.531 864.089C333.334 935.11 408.741 978.727 490.15 977.817L498.62 977.722C577.878 976.836 650.682 933.861 689.755 864.898L724.423 803.709C744.557 768.173 774.082 738.864 809.765 718.991L860.72 690.612C932.422 650.678 976.322 574.517 974.938 492.456V492.456C973.603 413.293 930.305 340.801 861.238 302.093L803.721 269.859C767.96 249.817 738.43 220.287 718.389 184.526L686.159 127.019Z" fill="#7556F6"/>
<path d="M683.155 337.868C654.723 329.589 625.282 317.812 595.426 305.945C593.705 298.413 587.086 289.027 573.672 277.519C554.173 260.481 517.55 260.929 485.913 268.462C450.981 260.182 416.466 257.223 383.345 265.234C112.5 340.409 261.904 531.773 162.452 716.111C249.867 749.555 281.918 863.088 542.572 873.962C542.572 873.962 478.493 684.693 648.817 596.993C786.97 525.882 886.778 393.824 683.125 337.839L683.155 337.868Z" fill="#CBBDFF"/>
<path d="M777.954 491.567C716.609 535.118 646.776 568.148 547.799 568.148C501.471 568.148 492.063 518.559 461.435 542.86C445.617 555.414 389.881 583.482 345.63 581.36C300.994 579.207 229.736 553.083 209.704 458C210.833 553.716 207.925 636.616 162.373 716.2C243.507 755.403 276.839 850.258 315.297 896.45C371.868 964.396 446.532 993.519 545.133 972.252C528.721 856.784 637.753 638.81 694.202 580.941C715.57 559.031 756.526 523.252 777.954 491.567Z" fill="#CBBDFF"/>
<path d="M478.647 268.279C502.896 277.971 591.447 307.464 629.759 319.042C590.641 254.135 531.362 257.881 478.647 268.279Z" fill="#AC94FF"/>
<path d="M504.677 381.829C504.677 423.975 470.755 458.11 428.938 458.11C387.122 458.11 353.199 423.975 353.199 381.829C353.199 339.682 387.122 305.577 428.938 305.577C470.755 305.577 504.677 339.712 504.677 381.829Z" fill="white"/>
<ellipse cx="460.856" cy="381.284" rx="44.4445" ry="62.2223" fill="black"/>
<path d="M460.858 381.277L407.525 345.722V416.833L460.858 381.277Z" fill="white"/>
</svg>
