<svg width="1520" height="1520" viewBox="0 0 1520 1520" fill="none" xmlns="http://www.w3.org/2000/svg">
<rect width="1520" height="1520" fill="#072723"/>
<path d="M593 922.5V678.069C593 667.46 588.786 657.286 581.284 649.784L548.216 616.716C540.714 609.214 536.5 599.04 536.5 588.431V444.5C536.5 422.409 554.409 404.5 576.5 404.5H1116" stroke="#D6D6D6" stroke-width="20" stroke-linecap="round" stroke-linejoin="round"/>
<path d="M450 1069.67H843.761C854.298 1069.67 864.409 1073.83 871.898 1081.24L909.475 1118.43C916.964 1125.84 927.075 1130 937.613 1130H1054.04C1076.13 1130 1094.04 1112.09 1094.04 1090V767.201C1094.04 756.638 1098.22 746.503 1105.67 739.009L1141.38 703.067C1148.82 695.573 1153 685.438 1153 674.875V364" stroke="#D6D6D6" stroke-width="20" stroke-linecap="round" stroke-linejoin="round"/>
<path d="M549.043 961L428.135 843.602C420.378 836.069 416 825.717 416 814.904V601C416 578.909 433.909 561 456 561H961" stroke="#D6D6D6" stroke-width="20" stroke-linecap="round" stroke-linejoin="round"/>
<path d="M278 1242H583.196C627.378 1242 663.196 1206.18 663.196 1162V737.065C663.196 714.973 681.104 697.065 703.196 697.065H984.632C1006.72 697.065 1024.63 679.156 1024.63 657.065V318C1024.63 295.909 1042.54 278 1064.63 278H1242" stroke="#D6D6D6" stroke-width="20" stroke-linecap="round" stroke-linejoin="round"/>
<path d="M278 1242V1059.53C278 1048.94 282.194 1038.79 289.665 1031.29L325.062 995.767C332.568 988.234 342.764 984 353.398 984H753.104C763.737 984 773.934 979.766 781.439 972.233L824.31 929.207C831.78 921.71 835.974 911.557 835.974 900.974V514C835.974 491.909 853.883 474 875.974 474H1202C1224.09 474 1242 456.091 1242 434V278" stroke="#D6D6D6" stroke-width="20" stroke-linecap="round" stroke-linejoin="round"/>
<path d="M278 1301V1249.94C278 1243.58 280.529 1237.47 285.029 1232.97L1234.97 283.029C1239.47 278.529 1242 272.424 1242 266.059V215.5" stroke="#66E5C7" stroke-width="40" stroke-linecap="round" stroke-linejoin="round"/>
<circle cx="652" cy="405" r="14" fill="#072723" stroke="#D6D6D6" stroke-width="8" stroke-linecap="round" stroke-linejoin="round"/>
<circle cx="836" cy="561" r="14" fill="#072723" stroke="#D6D6D6" stroke-width="8" stroke-linecap="round" stroke-linejoin="round"/>
<circle cx="1153" cy="475" r="14" fill="#072723" stroke="#D6D6D6" stroke-width="8" stroke-linecap="round" stroke-linejoin="round"/>
<circle cx="1024" cy="405" r="14" fill="#072723" stroke="#D6D6D6" stroke-width="8" stroke-linecap="round" stroke-linejoin="round"/>
<circle cx="537" cy="561" r="14" fill="#072723" stroke="#D6D6D6" stroke-width="8" stroke-linecap="round" stroke-linejoin="round"/>
<circle cx="416" cy="747" r="14" fill="#072723" stroke="#D6D6D6" stroke-width="8" stroke-linecap="round" stroke-linejoin="round"/>
<circle cx="416" cy="983" r="14" fill="#072723" stroke="#D6D6D6" stroke-width="8" stroke-linecap="round" stroke-linejoin="round"/>
<circle cx="662" cy="1070" r="14" fill="#072723" stroke="#D6D6D6" stroke-width="8" stroke-linecap="round" stroke-linejoin="round"/>
<circle cx="1094" cy="933" r="14" fill="#072723" stroke="#D6D6D6" stroke-width="8" stroke-linecap="round" stroke-linejoin="round"/>
<rect x="1008" y="133" width="262" height="56" rx="28" fill="#66E5C7"/>
<path d="M1034.56 174V148.26H1038.52V159.024H1051.15V148.26H1055.15V174H1051.15V162.444H1038.52V174H1034.56ZM1061.77 180.444C1060.98 180.444 1060.44 180.372 1059.51 180.192V177.312C1060.12 177.384 1060.44 177.42 1061.02 177.42C1062.42 177.42 1064.08 176.7 1064.8 173.82L1057.38 155.64H1061.23L1066.6 169.68H1066.67L1071.71 155.64H1075.42L1068.15 174.432C1066.38 178.968 1064.62 180.444 1061.77 180.444ZM1086.83 174.504C1083.95 174.504 1082.18 173.208 1081.17 171.732H1081.1V180.372H1077.57V155.64H1081.1V157.8H1081.17C1082.18 156.504 1083.95 155.1 1086.83 155.1C1091.51 155.1 1095.07 158.772 1095.07 164.82C1095.07 170.868 1091.51 174.504 1086.83 174.504ZM1081.14 164.82C1081.14 168.96 1083.08 171.588 1086.25 171.588C1089.71 171.588 1091.36 168.42 1091.36 164.82C1091.36 161.22 1089.71 158.052 1086.25 158.052C1083.08 158.052 1081.14 160.644 1081.14 164.82ZM1106.24 174.54C1100.41 174.54 1097.17 170.4 1097.17 164.784C1097.17 159.024 1100.62 155.064 1106.24 155.064C1111.82 155.064 1114.95 158.736 1114.95 164.424C1114.95 164.928 1114.95 165.468 1114.92 165.756H1100.81C1100.88 168.816 1102.68 171.66 1106.31 171.66C1109.55 171.66 1110.81 169.572 1111.14 168.348H1114.74C1113.77 171.876 1111.07 174.54 1106.24 174.54ZM1100.81 162.984H1111.28C1111.28 160.104 1109.27 157.944 1106.13 157.944C1103.18 157.944 1101.02 159.96 1100.81 162.984ZM1121.46 164.496V174H1117.93V155.64H1121.46V159.132H1121.53C1122.51 156.828 1123.98 155.208 1126.47 155.208C1127.11 155.208 1127.62 155.244 1128.16 155.316V158.7C1127.73 158.628 1127.4 158.592 1126.97 158.592C1123.77 158.592 1121.46 161.004 1121.46 164.496ZM1130.45 174V148.26H1133.98V174H1130.45ZM1137.94 174V155.64H1141.47V174H1137.94ZM1137.72 152.364V148.548H1141.72V152.364H1137.72ZM1152.73 174.504C1148.05 174.504 1144.49 170.868 1144.49 164.82C1144.49 158.772 1148.05 155.1 1152.73 155.1C1155.61 155.1 1157.38 156.432 1158.39 157.872H1158.46V155.64H1161.99V180.372H1158.46V171.84H1158.39C1157.38 173.136 1155.61 174.504 1152.73 174.504ZM1148.16 164.82C1148.16 168.42 1149.85 171.588 1153.31 171.588C1156.48 171.588 1158.42 168.96 1158.42 164.82C1158.42 160.644 1156.48 158.052 1153.31 158.052C1149.85 158.052 1148.16 161.22 1148.16 164.82ZM1171.9 174.504C1168.51 174.504 1165.78 172.56 1165.78 168.348V155.64H1169.31V167.376C1169.31 169.86 1170.39 171.516 1173.05 171.516C1176.07 171.516 1178.02 169.68 1178.02 166.908V155.64H1181.55V174H1178.02V171.696H1177.95C1176.97 173.1 1175.07 174.504 1171.9 174.504ZM1185.5 174V155.64H1189.03V174H1185.5ZM1185.29 152.364V148.548H1189.28V152.364H1185.29ZM1200.3 174.504C1195.62 174.504 1192.06 170.868 1192.06 164.82C1192.06 158.772 1195.62 155.1 1200.3 155.1C1203.18 155.1 1204.94 156.432 1205.95 157.872H1206.02V148.26H1209.55V174H1206.02V171.84H1205.95C1204.94 173.136 1203.18 174.504 1200.3 174.504ZM1195.73 164.82C1195.73 168.42 1197.42 171.588 1200.88 171.588C1204.04 171.588 1205.99 168.96 1205.99 164.82C1205.99 160.644 1204.04 158.052 1200.88 158.052C1197.42 158.052 1195.73 161.22 1195.73 164.82Z" fill="black"/>
<rect x="1222" y="141" width="40" height="40" rx="20" fill="#072723"/>
<path d="M109.36 165L95.12 107.8H104.32L114.4 152.84H114.56L126.4 107.8H135.68L147.6 152.84H147.76L157.84 107.8H167.04L152.72 165H143.28L131.12 119H130.96L118.88 165H109.36ZM199.663 138.84C199.663 133.4 197.263 129.72 191.343 129.72C184.623 129.72 180.303 133.8 180.303 139.96V165H172.463V107.8H180.303V129.32H180.463C182.623 126.2 186.863 123 193.903 123C201.423 123 207.503 127.32 207.503 136.68V165H199.663V138.84ZM220.555 179.32C218.795 179.32 217.595 179.16 215.515 178.76V172.36C216.875 172.52 217.595 172.6 218.875 172.6C221.995 172.6 225.675 171 227.275 164.6L210.795 124.2H219.355L231.275 155.4H231.435L242.635 124.2H250.875L234.715 165.96C230.795 176.04 226.875 179.32 220.555 179.32ZM283.871 165.48C277.151 165.48 273.071 162.92 273.071 153.48V130.68H267.151V124.2H273.071V111.08H280.911V124.2H288.751V130.68H280.911V153.72C280.911 158.04 282.111 159 285.471 159C286.831 159 287.471 158.92 288.831 158.68V165C286.831 165.4 285.551 165.48 283.871 165.48ZM306.555 166.12C298.395 166.12 293.195 161.4 293.195 154.44C293.195 145.32 300.075 142.6 310.235 140.68C316.635 139.48 320.555 138.68 320.555 134.68C320.555 131.72 318.795 129.24 312.795 129.24C305.675 129.24 303.515 131.48 303.115 136.92H295.115C295.515 129.08 300.635 122.92 313.115 122.92C321.515 122.92 328.235 126.44 328.235 137V155.72C328.235 158.68 328.635 160.2 330.155 160.2C330.395 160.2 330.635 160.2 331.115 160.12V164.92C329.755 165.24 328.395 165.4 327.115 165.4C323.195 165.4 321.115 163.88 320.635 159.24H320.475C317.835 163.48 313.195 166.12 306.555 166.12ZM301.355 153.88C301.355 157.72 303.435 159.8 308.315 159.8C315.355 159.8 320.555 156.2 320.555 149.08V143.24C319.275 144.44 315.755 145.32 311.595 146.2C304.395 147.64 301.355 149.64 301.355 153.88ZM337.775 165V107.8H345.615V141.48L363.455 124.2H372.495L356.815 139.16L374.175 165H364.895L351.535 144.12L345.615 149.8V165H337.775ZM393.433 166.2C380.473 166.2 373.273 157 373.273 144.52C373.273 131.72 380.953 122.92 393.433 122.92C405.833 122.92 412.793 131.08 412.793 143.72C412.793 144.84 412.793 146.04 412.713 146.68H381.353C381.513 153.48 385.513 159.8 393.593 159.8C400.793 159.8 403.593 155.16 404.313 152.44H412.313C410.153 160.28 404.153 166.2 393.433 166.2ZM381.353 140.52H404.633C404.633 134.12 400.153 129.32 393.193 129.32C386.633 129.32 381.833 133.8 381.353 140.52ZM454.214 166.2C441.254 166.2 434.054 157 434.054 144.52C434.054 131.72 441.734 122.92 454.214 122.92C466.614 122.92 473.574 131.08 473.574 143.72C473.574 144.84 473.574 146.04 473.494 146.68H442.134C442.294 153.48 446.294 159.8 454.374 159.8C461.574 159.8 464.374 155.16 465.094 152.44H473.094C470.934 160.28 464.934 166.2 454.214 166.2ZM442.134 140.52H465.414C465.414 134.12 460.934 129.32 453.974 129.32C447.414 129.32 442.614 133.8 442.134 140.52ZM473.204 165L488.564 144.12L474.564 124.2H483.524L493.284 138.76H493.444L503.044 124.2H512.004L498.004 144.12L513.524 165H504.324L493.284 149.4H493.124L482.324 165H473.204ZM530.668 165.48C523.948 165.48 519.868 162.92 519.868 153.48V130.68H513.948V124.2H519.868V111.08H527.708V124.2H535.548V130.68H527.708V153.72C527.708 158.04 528.908 159 532.268 159C533.628 159 534.268 158.92 535.628 158.68V165C533.628 165.4 532.348 165.48 530.668 165.48ZM549.912 143.88V165H542.072V124.2H549.912V131.96H550.072C552.232 126.84 555.512 123.24 561.032 123.24C562.472 123.24 563.592 123.32 564.792 123.48V131C563.832 130.84 563.112 130.76 562.152 130.76C555.032 130.76 549.912 136.12 549.912 143.88ZM579.758 166.12C571.598 166.12 566.398 161.4 566.398 154.44C566.398 145.32 573.278 142.6 583.438 140.68C589.838 139.48 593.758 138.68 593.758 134.68C593.758 131.72 591.998 129.24 585.998 129.24C578.878 129.24 576.718 131.48 576.318 136.92H568.318C568.718 129.08 573.838 122.92 586.318 122.92C594.718 122.92 601.438 126.44 601.438 137V155.72C601.438 158.68 601.838 160.2 603.358 160.2C603.598 160.2 603.838 160.2 604.318 160.12V164.92C602.958 165.24 601.598 165.4 600.318 165.4C596.398 165.4 594.318 163.88 593.838 159.24H593.678C591.038 163.48 586.398 166.12 579.758 166.12ZM574.558 153.88C574.558 157.72 576.638 159.8 581.518 159.8C588.558 159.8 593.758 156.2 593.758 149.08V143.24C592.478 144.44 588.958 145.32 584.798 146.2C577.598 147.64 574.558 149.64 574.558 153.88ZM643.777 166.12C631.377 166.12 625.217 159.72 624.977 151.4H632.897C633.217 156.12 636.097 159.8 643.697 159.8C650.577 159.8 652.417 156.76 652.417 153.8C652.417 148.68 646.977 148.12 641.697 147C634.577 145.32 626.417 143.24 626.417 134.76C626.417 127.72 632.097 123 641.937 123C653.137 123 658.497 129 659.057 136.04H651.137C650.577 132.92 648.897 129.32 642.097 129.32C636.817 129.32 634.577 131.4 634.577 134.44C634.577 138.68 639.137 139.08 644.897 140.36C652.417 142.12 660.577 144.28 660.577 153.4C660.577 161.32 654.497 166.12 643.777 166.12ZM679.731 165.48C673.011 165.48 668.931 162.92 668.931 153.48V130.68H663.011V124.2H668.931V111.08H676.771V124.2H684.611V130.68H676.771V153.72C676.771 158.04 677.971 159 681.331 159C682.691 159 683.331 158.92 684.691 158.68V165C682.691 165.4 681.411 165.48 679.731 165.48ZM708.355 166.2C695.395 166.2 688.195 157 688.195 144.52C688.195 131.72 695.875 122.92 708.355 122.92C720.755 122.92 727.715 131.08 727.715 143.72C727.715 144.84 727.715 146.04 727.635 146.68H696.275C696.435 153.48 700.435 159.8 708.515 159.8C715.715 159.8 718.515 155.16 719.235 152.44H727.235C725.075 160.28 719.075 166.2 708.355 166.2ZM696.275 140.52H719.555C719.555 134.12 715.075 129.32 708.115 129.32C701.555 129.32 696.755 133.8 696.275 140.52ZM754.898 166.12C748.498 166.12 744.578 163.24 742.338 159.96H742.178V179.16H734.338V124.2H742.178V129H742.338C744.578 126.12 748.498 123 754.898 123C765.298 123 773.218 131.16 773.218 144.6C773.218 158.04 765.298 166.12 754.898 166.12ZM742.258 144.6C742.258 153.8 746.578 159.64 753.618 159.64C761.298 159.64 764.978 152.6 764.978 144.6C764.978 136.6 761.298 129.56 753.618 129.56C746.578 129.56 742.258 135.32 742.258 144.6ZM796.043 166.12C783.643 166.12 777.483 159.72 777.243 151.4H785.163C785.483 156.12 788.363 159.8 795.963 159.8C802.843 159.8 804.683 156.76 804.683 153.8C804.683 148.68 799.243 148.12 793.963 147C786.843 145.32 778.683 143.24 778.683 134.76C778.683 127.72 784.363 123 794.203 123C805.403 123 810.763 129 811.323 136.04H803.403C802.843 132.92 801.163 129.32 794.363 129.32C789.083 129.32 786.843 131.4 786.843 134.44C786.843 138.68 791.403 139.08 797.163 140.36C804.683 142.12 812.843 144.28 812.843 153.4C812.843 161.32 806.763 166.12 796.043 166.12ZM826.276 165V156.28H834.996V165H826.276ZM813.716 126.44C813.716 115.16 820.436 106.68 833.316 106.68C844.116 106.68 851.236 112.76 851.236 121.72C851.236 128.36 847.396 131.4 842.756 134.92C838.036 138.44 834.436 140.36 834.436 149.4H826.436C826.436 139 830.436 135.72 835.556 131.8C839.716 128.6 842.596 126.68 842.596 121.72C842.596 117.08 839.396 114.12 833.476 114.12C827.236 114.12 822.436 117.4 822.436 126.44H813.716Z" fill="#97FCE4"/>
<path d="M677.68 1430V1372.8H699.44C715.28 1372.8 724.88 1383.04 724.88 1401.44C724.88 1419.84 715.44 1430 699.6 1430H677.68ZM686.48 1422.4H699.04C712.32 1422.4 715.76 1412.48 715.76 1401.44C715.76 1390.4 712.32 1380.4 699.04 1380.4H686.48V1422.4ZM750.261 1431.2C737.301 1431.2 730.101 1422 730.101 1409.52C730.101 1396.72 737.781 1387.92 750.261 1387.92C762.661 1387.92 769.621 1396.08 769.621 1408.72C769.621 1409.84 769.621 1411.04 769.541 1411.68H738.181C738.341 1418.48 742.341 1424.8 750.421 1424.8C757.621 1424.8 760.421 1420.16 761.141 1417.44H769.141C766.981 1425.28 760.981 1431.2 750.261 1431.2ZM738.181 1405.52H761.461C761.461 1399.12 756.981 1394.32 750.021 1394.32C743.461 1394.32 738.661 1398.8 738.181 1405.52ZM796.804 1431.12C790.404 1431.12 786.484 1428.24 784.244 1424.96H784.084V1444.16H776.244V1389.2H784.084V1394H784.244C786.484 1391.12 790.404 1388 796.804 1388C807.204 1388 815.124 1396.16 815.124 1409.6C815.124 1423.04 807.204 1431.12 796.804 1431.12ZM784.164 1409.6C784.164 1418.8 788.484 1424.64 795.524 1424.64C803.204 1424.64 806.884 1417.6 806.884 1409.6C806.884 1401.6 803.204 1394.56 795.524 1394.56C788.484 1394.56 784.164 1400.32 784.164 1409.6ZM840.109 1431.2C827.389 1431.2 819.709 1422.4 819.709 1409.6C819.709 1396.88 827.389 1387.92 840.189 1387.92C852.829 1387.92 860.509 1396.8 860.509 1409.52C860.509 1422.32 852.829 1431.2 840.109 1431.2ZM827.869 1409.6C827.869 1418.08 831.709 1424.72 840.189 1424.72C848.509 1424.72 852.349 1418.08 852.349 1409.6C852.349 1401.04 848.509 1394.48 840.189 1394.48C831.709 1394.48 827.869 1401.04 827.869 1409.6ZM883.261 1431.12C870.861 1431.12 864.701 1424.72 864.461 1416.4H872.381C872.701 1421.12 875.581 1424.8 883.181 1424.8C890.061 1424.8 891.901 1421.76 891.901 1418.8C891.901 1413.68 886.461 1413.12 881.181 1412C874.061 1410.32 865.901 1408.24 865.901 1399.76C865.901 1392.72 871.581 1388 881.421 1388C892.621 1388 897.981 1394 898.541 1401.04H890.621C890.061 1397.92 888.381 1394.32 881.581 1394.32C876.301 1394.32 874.061 1396.4 874.061 1399.44C874.061 1403.68 878.621 1404.08 884.381 1405.36C891.901 1407.12 900.061 1409.28 900.061 1418.4C900.061 1426.32 893.981 1431.12 883.261 1431.12ZM906.244 1430V1389.2H914.084V1430H906.244ZM905.764 1381.92V1373.44H914.644V1381.92H905.764ZM936.324 1430.48C929.604 1430.48 925.524 1427.92 925.524 1418.48V1395.68H919.604V1389.2H925.524V1376.08H933.364V1389.2H941.204V1395.68H933.364V1418.72C933.364 1423.04 934.564 1424 937.924 1424C939.284 1424 939.924 1423.92 941.284 1423.68V1430C939.284 1430.4 938.004 1430.48 936.324 1430.48ZM977.887 1430.48C971.167 1430.48 967.087 1427.92 967.087 1418.48V1395.68H961.167V1389.2H967.087V1376.08H974.927V1389.2H982.767V1395.68H974.927V1418.72C974.927 1423.04 976.127 1424 979.487 1424C980.847 1424 981.487 1423.92 982.847 1423.68V1430C980.847 1430.4 979.567 1430.48 977.887 1430.48ZM1006.67 1431.2C993.951 1431.2 986.271 1422.4 986.271 1409.6C986.271 1396.88 993.951 1387.92 1006.75 1387.92C1019.39 1387.92 1027.07 1396.8 1027.07 1409.52C1027.07 1422.32 1019.39 1431.2 1006.67 1431.2ZM994.431 1409.6C994.431 1418.08 998.271 1424.72 1006.75 1424.72C1015.07 1424.72 1018.91 1418.08 1018.91 1409.6C1018.91 1401.04 1015.07 1394.48 1006.75 1394.48C998.271 1394.48 994.431 1401.04 994.431 1409.6ZM1051.74 1430V1372.8H1060.54V1396.72H1088.62V1372.8H1097.5V1430H1088.62V1404.32H1060.54V1430H1051.74ZM1112.23 1444.32C1110.47 1444.32 1109.27 1444.16 1107.19 1443.76V1437.36C1108.55 1437.52 1109.27 1437.6 1110.55 1437.6C1113.67 1437.6 1117.35 1436 1118.95 1429.6L1102.47 1389.2H1111.03L1122.95 1420.4H1123.11L1134.31 1389.2H1142.55L1126.39 1430.96C1122.47 1441.04 1118.55 1444.32 1112.23 1444.32ZM1167.9 1431.12C1161.5 1431.12 1157.58 1428.24 1155.34 1424.96H1155.18V1444.16H1147.34V1389.2H1155.18V1394H1155.34C1157.58 1391.12 1161.5 1388 1167.9 1388C1178.3 1388 1186.22 1396.16 1186.22 1409.6C1186.22 1423.04 1178.3 1431.12 1167.9 1431.12ZM1155.26 1409.6C1155.26 1418.8 1159.58 1424.64 1166.62 1424.64C1174.3 1424.64 1177.98 1417.6 1177.98 1409.6C1177.98 1401.6 1174.3 1394.56 1166.62 1394.56C1159.58 1394.56 1155.26 1400.32 1155.26 1409.6ZM1211.04 1431.2C1198.08 1431.2 1190.88 1422 1190.88 1409.52C1190.88 1396.72 1198.56 1387.92 1211.04 1387.92C1223.44 1387.92 1230.4 1396.08 1230.4 1408.72C1230.4 1409.84 1230.4 1411.04 1230.32 1411.68H1198.96C1199.12 1418.48 1203.12 1424.8 1211.2 1424.8C1218.4 1424.8 1221.2 1420.16 1221.92 1417.44H1229.92C1227.76 1425.28 1221.76 1431.2 1211.04 1431.2ZM1198.96 1405.52H1222.24C1222.24 1399.12 1217.76 1394.32 1210.8 1394.32C1204.24 1394.32 1199.44 1398.8 1198.96 1405.52ZM1244.87 1408.88V1430H1237.03V1389.2H1244.87V1396.96H1245.03C1247.19 1391.84 1250.47 1388.24 1255.99 1388.24C1257.43 1388.24 1258.55 1388.32 1259.75 1388.48V1396C1258.79 1395.84 1258.07 1395.76 1257.11 1395.76C1249.99 1395.76 1244.87 1401.12 1244.87 1408.88ZM1264.84 1430V1372.8H1272.68V1430H1264.84ZM1281.48 1430V1389.2H1289.32V1430H1281.48ZM1281 1381.92V1373.44H1289.88V1381.92H1281ZM1314.36 1431.12C1303.96 1431.12 1296.04 1423.04 1296.04 1409.6C1296.04 1396.16 1303.96 1388 1314.36 1388C1320.76 1388 1324.68 1390.96 1326.92 1394.16H1327.08V1389.2H1334.92V1444.16H1327.08V1425.2H1326.92C1324.68 1428.08 1320.76 1431.12 1314.36 1431.12ZM1304.2 1409.6C1304.2 1417.6 1307.96 1424.64 1315.64 1424.64C1322.68 1424.64 1327 1418.8 1327 1409.6C1327 1400.32 1322.68 1394.56 1315.64 1394.56C1307.96 1394.56 1304.2 1401.6 1304.2 1409.6ZM1356.95 1431.12C1349.43 1431.12 1343.35 1426.8 1343.35 1417.44V1389.2H1351.19V1415.28C1351.19 1420.8 1353.59 1424.48 1359.51 1424.48C1366.23 1424.48 1370.55 1420.4 1370.55 1414.24V1389.2H1378.39V1430H1370.55V1424.88H1370.39C1368.23 1428 1363.99 1431.12 1356.95 1431.12ZM1387.18 1430V1389.2H1395.02V1430H1387.18ZM1386.7 1381.92V1373.44H1395.58V1381.92H1386.7ZM1420.06 1431.12C1409.66 1431.12 1401.74 1423.04 1401.74 1409.6C1401.74 1396.16 1409.66 1388 1420.06 1388C1426.46 1388 1430.38 1390.96 1432.62 1394.16H1432.78V1372.8H1440.62V1430H1432.78V1425.2H1432.62C1430.38 1428.08 1426.46 1431.12 1420.06 1431.12ZM1409.9 1409.6C1409.9 1417.6 1413.66 1424.64 1421.34 1424.64C1428.38 1424.64 1432.7 1418.8 1432.7 1409.6C1432.7 1400.32 1428.38 1394.56 1421.34 1394.56C1413.66 1394.56 1409.9 1401.6 1409.9 1409.6Z" fill="#97FCE4"/>
<rect x="250" y="1331" width="242" height="56" rx="28" fill="#66E5C7"/>
<rect x="258" y="1339" width="40" height="40" rx="20" fill="#072723"/>
<path d="M308.144 1372L317.72 1346.26H322.004L331.652 1372H327.332L325.208 1365.81H314.444L312.32 1372H308.144ZM315.632 1362.46H324.092L319.88 1349.93H319.808L315.632 1362.46ZM345.986 1360.23C345.986 1357.78 344.906 1356.12 342.242 1356.12C339.218 1356.12 337.274 1357.96 337.274 1360.73V1372H333.746V1353.64H337.274V1355.94H337.346C338.318 1354.54 340.226 1353.1 343.394 1353.1C346.778 1353.1 349.514 1355.04 349.514 1359.26V1372H345.986V1360.23ZM355.387 1378.44C354.595 1378.44 354.055 1378.37 353.119 1378.19V1375.31C353.731 1375.38 354.055 1375.42 354.631 1375.42C356.035 1375.42 357.691 1374.7 358.411 1371.82L350.995 1353.64H354.847L360.211 1367.68H360.283L365.323 1353.64H369.031L361.759 1372.43C359.995 1376.97 358.231 1378.44 355.387 1378.44ZM375.219 1372L369.531 1353.64H373.347L377.235 1367.86H377.307L381.123 1353.64H384.687L388.503 1367.86H388.575L392.499 1353.64H396.171L390.483 1372H386.847L382.887 1357.85H382.815L378.855 1372H375.219ZM410.708 1360.23C410.708 1357.78 409.628 1356.12 406.964 1356.12C403.94 1356.12 401.996 1357.96 401.996 1360.73V1372H398.468V1346.26H401.996V1355.94H402.068C403.04 1354.54 404.948 1353.1 408.116 1353.1C411.5 1353.1 414.236 1355.04 414.236 1359.26V1372H410.708V1360.23ZM426.186 1372.54C420.354 1372.54 417.114 1368.4 417.114 1362.78C417.114 1357.02 420.57 1353.06 426.186 1353.06C431.766 1353.06 434.898 1356.74 434.898 1362.42C434.898 1362.93 434.898 1363.47 434.862 1363.76H420.75C420.822 1366.82 422.622 1369.66 426.258 1369.66C429.498 1369.66 430.758 1367.57 431.082 1366.35H434.682C433.71 1369.88 431.01 1372.54 426.186 1372.54ZM420.75 1360.98H431.226C431.226 1358.1 429.21 1355.94 426.078 1355.94C423.126 1355.94 420.966 1357.96 420.75 1360.98ZM441.406 1362.5V1372H437.878V1353.64H441.406V1357.13H441.478C442.45 1354.83 443.926 1353.21 446.41 1353.21C447.058 1353.21 447.562 1353.24 448.102 1353.32V1356.7C447.67 1356.63 447.346 1356.59 446.914 1356.59C443.71 1356.59 441.406 1359 441.406 1362.5ZM457.757 1372.54C451.925 1372.54 448.685 1368.4 448.685 1362.78C448.685 1357.02 452.141 1353.06 457.757 1353.06C463.337 1353.06 466.469 1356.74 466.469 1362.42C466.469 1362.93 466.469 1363.47 466.433 1363.76H452.321C452.393 1366.82 454.193 1369.66 457.829 1369.66C461.069 1369.66 462.329 1367.57 462.653 1366.35H466.253C465.281 1369.88 462.581 1372.54 457.757 1372.54ZM452.321 1360.98H462.797C462.797 1358.1 460.781 1355.94 457.649 1355.94C454.697 1355.94 452.537 1357.96 452.321 1360.98Z" fill="black"/>
<path d="M692 785H735V828" stroke="#072723" stroke-width="10" stroke-linecap="round"/>
<path d="M706 771H749V814" stroke="#072723" stroke-width="10" stroke-linecap="round"/>
<path d="M720 757H763V800" stroke="#072723" stroke-width="10" stroke-linecap="round"/>
<path d="M734 743H777V786" stroke="#072723" stroke-width="10" stroke-linecap="round"/>
</svg>
