<svg width="1080" height="1080" viewBox="0 0 1080 1080" fill="none" xmlns="http://www.w3.org/2000/svg">
<g clip-path="url(#clip0_6156_15206)">
<rect width="1080" height="1080" fill="#2D2F33"/>
<g filter="url(#filter0_f_6156_15206)">
<path d="M1551.5 -56H362.731H144.5L1551.5 1351V-56Z" fill="url(#paint0_linear_6156_15206)"/>
</g>
<g filter="url(#filter1_f_6156_15206)">
<path d="M-454 -56H734.769H953L-454 1351V-56Z" fill="url(#paint1_linear_6156_15206)"/>
</g>
<line x1="-1482" y1="541.5" x2="1713" y2="541.5" stroke="url(#paint2_linear_6156_15206)" stroke-opacity="0.45"/>
<g filter="url(#filter2_d_6156_15206)">
<path d="M712.176 631.056L654.564 691.813C653.315 693.129 651.805 694.18 650.127 694.901C648.45 695.621 646.64 695.995 644.809 696H371.692C370.392 695.993 369.122 695.615 368.037 694.912C366.951 694.209 366.097 693.21 365.577 692.038C365.058 690.867 364.895 689.572 365.11 688.311C365.325 687.05 365.907 685.877 366.786 684.936L424.328 624.179C425.576 622.863 427.086 621.812 428.764 621.092C430.442 620.371 432.252 619.997 434.082 619.992H707.2C708.514 619.966 709.806 620.323 710.915 621.018C712.023 621.712 712.898 622.714 713.43 623.896C713.962 625.078 714.126 626.389 713.903 627.663C713.68 628.937 713.079 630.117 712.176 631.056ZM654.564 508.67C653.31 507.36 651.799 506.313 650.122 505.594C648.446 504.874 646.638 504.496 644.809 504.483H371.692C370.389 504.484 369.115 504.858 368.026 505.56C366.936 506.262 366.079 507.262 365.558 508.436C365.038 509.61 364.876 510.909 365.095 512.172C365.313 513.435 365.901 514.608 366.786 515.547L424.328 576.345C425.582 577.655 427.092 578.702 428.769 579.422C430.446 580.141 432.253 580.519 434.082 580.532H707.2C708.497 580.52 709.763 580.138 710.844 579.433C711.925 578.728 712.776 577.729 713.292 576.558C713.808 575.387 713.968 574.095 713.752 572.836C713.537 571.578 712.955 570.408 712.077 569.468L654.564 508.67ZM371.692 465.023H644.809C646.64 465.018 648.45 464.644 650.127 463.924C651.805 463.203 653.315 462.153 654.564 460.836L712.176 400.066C712.846 399.361 713.35 398.52 713.654 397.602C713.957 396.684 714.051 395.712 713.93 394.754C713.809 393.797 713.476 392.877 712.953 392.06C712.431 391.243 711.732 390.549 710.907 390.027C709.802 389.332 708.511 388.975 707.2 389.001H434.082C432.252 389.006 430.442 389.381 428.764 390.101C427.086 390.821 425.576 391.872 424.328 393.189L366.786 453.959C365.901 454.898 365.313 456.071 365.095 457.334C364.876 458.597 365.038 459.896 365.558 461.07C366.079 462.244 366.936 463.244 368.026 463.946C369.115 464.648 370.389 465.022 371.692 465.023Z" fill="url(#paint3_linear_6156_15206)"/>
</g>
<path d="M296.072 886.512C292.787 886.512 289.928 886 287.496 884.976C285.107 883.952 283.251 882.501 281.928 880.624C280.648 878.747 280.008 876.549 280.008 874.032V872.176C280.008 871.749 280.221 871.536 280.648 871.536H285.32C285.747 871.536 285.96 871.749 285.96 872.176V873.712C285.96 875.888 286.899 877.68 288.776 879.088C290.653 880.496 293.235 881.2 296.52 881.2C299.464 881.2 301.683 880.581 303.176 879.344C304.669 878.107 305.416 876.485 305.416 874.48C305.416 873.157 305.032 872.027 304.264 871.088C303.496 870.149 302.365 869.296 300.872 868.528C299.421 867.717 297.288 866.757 294.472 865.648C291.357 864.453 288.883 863.365 287.048 862.384C285.256 861.403 283.763 860.123 282.568 858.544C281.373 856.923 280.776 854.896 280.776 852.464C280.776 848.795 282.077 845.915 284.68 843.824C287.325 841.733 290.888 840.688 295.368 840.688C298.525 840.688 301.299 841.221 303.688 842.288C306.077 843.355 307.912 844.848 309.192 846.768C310.515 848.688 311.176 850.907 311.176 853.424V854.704C311.176 855.131 310.963 855.344 310.536 855.344H305.736C305.309 855.344 305.096 855.131 305.096 854.704V853.744C305.096 851.525 304.2 849.691 302.408 848.24C300.659 846.747 298.227 846 295.112 846C292.467 846 290.419 846.555 288.968 847.664C287.517 848.731 286.792 850.288 286.792 852.336C286.792 853.744 287.155 854.896 287.88 855.792C288.605 856.688 289.672 857.499 291.08 858.224C292.531 858.907 294.728 859.803 297.672 860.912C300.701 862.107 303.155 863.216 305.032 864.24C306.909 865.221 308.467 866.544 309.704 868.208C310.941 869.829 311.56 871.856 311.56 874.288C311.56 878.043 310.173 881.029 307.4 883.248C304.669 885.424 300.893 886.512 296.072 886.512ZM334.465 886.576C331.35 886.576 328.598 885.936 326.209 884.656C323.82 883.376 321.964 881.584 320.641 879.28C319.318 876.933 318.657 874.245 318.657 871.216V855.984C318.657 852.955 319.318 850.288 320.641 847.984C321.964 845.68 323.82 843.888 326.209 842.608C328.598 841.328 331.35 840.688 334.465 840.688C337.622 840.688 340.396 841.328 342.785 842.608C345.174 843.888 347.03 845.68 348.353 847.984C349.676 850.288 350.337 852.955 350.337 855.984V871.216C350.337 874.245 349.676 876.933 348.353 879.28C347.03 881.584 345.174 883.376 342.785 884.656C340.396 885.936 337.622 886.576 334.465 886.576ZM334.465 881.264C337.366 881.264 339.713 880.368 341.505 878.576C343.297 876.784 344.193 874.416 344.193 871.472V855.92C344.193 852.933 343.297 850.544 341.505 848.752C339.713 846.917 337.366 846 334.465 846C331.564 846 329.217 846.917 327.425 848.752C325.676 850.544 324.801 852.933 324.801 855.92V871.472C324.801 874.416 325.676 876.784 327.425 878.576C329.217 880.368 331.564 881.264 334.465 881.264ZM360.326 886C359.899 886 359.686 885.787 359.686 885.36V841.84C359.686 841.413 359.899 841.2 360.326 841.2H365.19C365.616 841.2 365.83 841.413 365.83 841.84V880.432C365.83 880.603 365.915 880.688 366.086 880.688H388.166C388.592 880.688 388.806 880.901 388.806 881.328V885.36C388.806 885.787 388.592 886 388.166 886H360.326ZM425.511 886C425.127 886 424.871 885.829 424.743 885.488L422.439 878C422.396 877.872 422.311 877.808 422.183 877.808H404.199C404.071 877.808 403.985 877.872 403.943 878L401.639 885.488C401.511 885.829 401.255 886 400.871 886H395.687C395.217 886 395.047 885.765 395.174 885.296L409.191 841.712C409.319 841.371 409.575 841.2 409.958 841.2H416.359C416.743 841.2 416.999 841.371 417.127 841.712L431.271 885.296L431.335 885.552C431.335 885.851 431.143 886 430.759 886H425.511ZM405.543 872.624C405.5 872.709 405.5 872.795 405.543 872.88C405.628 872.923 405.713 872.944 405.799 872.944H420.519C420.604 872.944 420.668 872.923 420.711 872.88C420.796 872.795 420.817 872.709 420.775 872.624L413.351 848.88C413.308 848.795 413.244 848.752 413.159 848.752C413.073 848.752 413.009 848.795 412.967 848.88L405.543 872.624ZM464.991 841.84C464.991 841.413 465.204 841.2 465.631 841.2H470.495C470.922 841.2 471.135 841.413 471.135 841.84V885.36C471.135 885.787 470.922 886 470.495 886H465.823C465.524 886 465.268 885.851 465.055 885.552L445.023 852.848C444.98 852.72 444.916 852.677 444.831 852.72C444.746 852.72 444.703 852.784 444.703 852.912L444.767 885.36C444.767 885.787 444.554 886 444.127 886H439.263C438.836 886 438.623 885.787 438.623 885.36V841.84C438.623 841.413 438.836 841.2 439.263 841.2H443.999C444.298 841.2 444.554 841.349 444.767 841.648L464.735 874.352C464.778 874.48 464.842 874.544 464.927 874.544C465.012 874.501 465.055 874.416 465.055 874.288L464.991 841.84ZM508.886 886C508.502 886 508.246 885.829 508.118 885.488L505.814 878C505.771 877.872 505.686 877.808 505.558 877.808H487.574C487.446 877.808 487.36 877.872 487.318 878L485.014 885.488C484.886 885.829 484.63 886 484.246 886H479.062C478.592 886 478.422 885.765 478.549 885.296L492.566 841.712C492.694 841.371 492.95 841.2 493.333 841.2H499.734C500.118 841.2 500.374 841.371 500.502 841.712L514.646 885.296L514.71 885.552C514.71 885.851 514.518 886 514.134 886H508.886ZM488.918 872.624C488.875 872.709 488.875 872.795 488.918 872.88C489.003 872.923 489.088 872.944 489.174 872.944H503.894C503.979 872.944 504.043 872.923 504.086 872.88C504.171 872.795 504.192 872.709 504.15 872.624L496.726 848.88C496.683 848.795 496.619 848.752 496.534 848.752C496.448 848.752 496.384 848.795 496.342 848.88L488.918 872.624ZM558.683 862.64C558.469 862.768 558.469 862.896 558.683 863.024C563.205 864.944 565.467 868.507 565.467 873.712C565.467 877.637 564.165 880.667 561.562 882.8C558.96 884.933 555.568 886 551.387 886H535.451C535.024 886 534.811 885.787 534.811 885.36V841.84C534.811 841.413 535.024 841.2 535.451 841.2H550.875C555.312 841.2 558.747 842.224 561.179 844.272C563.653 846.277 564.891 849.221 564.891 853.104C564.891 857.712 562.821 860.891 558.683 862.64ZM541.211 846.512C541.04 846.512 540.955 846.597 540.955 846.768V860.272C540.955 860.443 541.04 860.528 541.211 860.528H550.875C553.349 860.528 555.291 859.909 556.699 858.672C558.149 857.435 558.875 855.749 558.875 853.616C558.875 851.44 558.149 849.712 556.699 848.432C555.291 847.152 553.349 846.512 550.875 846.512H541.211ZM551.387 880.624C553.819 880.624 555.739 879.963 557.147 878.64C558.597 877.275 559.323 875.44 559.323 873.136C559.323 870.832 558.597 869.019 557.147 867.696C555.696 866.331 553.712 865.648 551.195 865.648H541.211C541.04 865.648 540.955 865.733 540.955 865.904V880.368C540.955 880.539 541.04 880.624 541.211 880.624H551.387ZM600.284 886C599.943 886 599.708 885.851 599.58 885.552L590.62 866.416C590.577 866.288 590.492 866.224 590.364 866.224H581.148C580.977 866.224 580.892 866.309 580.892 866.48V885.36C580.892 885.787 580.679 886 580.252 886H575.388C574.961 886 574.748 885.787 574.748 885.36V841.84C574.748 841.413 574.961 841.2 575.388 841.2H592.604C595.164 841.2 597.404 841.733 599.324 842.8C601.287 843.867 602.801 845.36 603.868 847.28C604.935 849.2 605.468 851.419 605.468 853.936C605.468 856.923 604.679 859.461 603.1 861.552C601.564 863.6 599.409 864.987 596.636 865.712C596.465 865.797 596.423 865.904 596.508 866.032L605.788 885.232C605.831 885.317 605.852 885.424 605.852 885.552C605.852 885.851 605.681 886 605.34 886H600.284ZM581.148 846.512C580.977 846.512 580.892 846.597 580.892 846.768V861.104C580.892 861.275 580.977 861.36 581.148 861.36H591.836C594.097 861.36 595.911 860.699 597.276 859.376C598.641 858.011 599.324 856.219 599.324 854C599.324 851.739 598.641 849.925 597.276 848.56C595.911 847.195 594.097 846.512 591.836 846.512H581.148ZM614.638 886C614.211 886 613.998 885.787 613.998 885.36V841.84C613.998 841.413 614.211 841.2 614.638 841.2H619.502C619.929 841.2 620.142 841.413 620.142 841.84V885.36C620.142 885.787 619.929 886 619.502 886H614.638ZM631.263 886C630.836 886 630.623 885.787 630.623 885.36V841.84C630.623 841.413 630.836 841.2 631.263 841.2H646.751C651.188 841.2 654.73 842.373 657.375 844.72C660.02 847.024 661.343 850.117 661.343 854V873.2C661.343 877.083 660.02 880.197 657.375 882.544C654.73 884.848 651.188 886 646.751 886H631.263ZM636.767 880.432C636.767 880.603 636.852 880.688 637.023 880.688H647.007C649.482 880.688 651.444 879.941 652.895 878.448C654.388 876.912 655.156 874.864 655.199 872.304V854.896C655.199 852.336 654.452 850.309 652.959 848.816C651.508 847.28 649.524 846.512 647.007 846.512H637.023C636.852 846.512 636.767 846.597 636.767 846.768V880.432ZM684.461 886.512C681.389 886.512 678.658 885.915 676.269 884.72C673.922 883.483 672.087 881.755 670.765 879.536C669.485 877.275 668.845 874.693 668.845 871.792V855.408C668.845 852.464 669.485 849.883 670.765 847.664C672.087 845.445 673.922 843.739 676.269 842.544C678.658 841.307 681.389 840.688 684.461 840.688C687.533 840.688 690.242 841.285 692.589 842.48C694.935 843.675 696.749 845.339 698.029 847.472C699.351 849.563 700.013 851.931 700.013 854.576V855.28C700.013 855.707 699.799 855.92 699.373 855.92H694.509C694.082 855.92 693.869 855.707 693.869 855.28V854.704C693.869 852.144 692.994 850.075 691.245 848.496C689.538 846.875 687.277 846.064 684.461 846.064C681.602 846.064 679.298 846.896 677.549 848.56C675.842 850.224 674.989 852.443 674.989 855.216V871.984C674.989 874.757 675.885 876.976 677.677 878.64C679.469 880.304 681.815 881.136 684.717 881.136C687.533 881.136 689.751 880.411 691.373 878.96C693.037 877.467 693.869 875.44 693.869 872.88V867.952C693.869 867.781 693.783 867.696 693.613 867.696H684.973C684.546 867.696 684.333 867.483 684.333 867.056V863.088C684.333 862.661 684.546 862.448 684.973 862.448H699.373C699.799 862.448 700.013 862.661 700.013 863.088V871.216C700.013 876.123 698.605 879.899 695.789 882.544C693.015 885.189 689.239 886.512 684.461 886.512ZM709.951 886C709.524 886 709.311 885.787 709.311 885.36V841.84C709.311 841.413 709.524 841.2 709.951 841.2H714.815C715.241 841.2 715.455 841.413 715.455 841.84V885.36C715.455 885.787 715.241 886 714.815 886H709.951ZM752.304 841.84C752.304 841.413 752.517 841.2 752.944 841.2H757.808C758.234 841.2 758.448 841.413 758.448 841.84V885.36C758.448 885.787 758.234 886 757.808 886H753.136C752.837 886 752.581 885.851 752.368 885.552L732.336 852.848C732.293 852.72 732.229 852.677 732.144 852.72C732.058 852.72 732.016 852.784 732.016 852.912L732.08 885.36C732.08 885.787 731.866 886 731.44 886H726.576C726.149 886 725.936 885.787 725.936 885.36V841.84C725.936 841.413 726.149 841.2 726.576 841.2H731.312C731.61 841.2 731.866 841.349 732.08 841.648L752.048 874.352C752.09 874.48 752.154 874.544 752.24 874.544C752.325 874.501 752.368 874.416 752.368 874.288L752.304 841.84ZM783.398 886.512C780.326 886.512 777.595 885.915 775.206 884.72C772.859 883.483 771.025 881.755 769.702 879.536C768.422 877.275 767.782 874.693 767.782 871.792V855.408C767.782 852.464 768.422 849.883 769.702 847.664C771.025 845.445 772.859 843.739 775.206 842.544C777.595 841.307 780.326 840.688 783.398 840.688C786.47 840.688 789.179 841.285 791.526 842.48C793.873 843.675 795.686 845.339 796.966 847.472C798.289 849.563 798.95 851.931 798.95 854.576V855.28C798.95 855.707 798.737 855.92 798.31 855.92H793.446C793.019 855.92 792.806 855.707 792.806 855.28V854.704C792.806 852.144 791.931 850.075 790.182 848.496C788.475 846.875 786.214 846.064 783.398 846.064C780.539 846.064 778.235 846.896 776.486 848.56C774.779 850.224 773.926 852.443 773.926 855.216V871.984C773.926 874.757 774.822 876.976 776.614 878.64C778.406 880.304 780.753 881.136 783.654 881.136C786.47 881.136 788.689 880.411 790.31 878.96C791.974 877.467 792.806 875.44 792.806 872.88V867.952C792.806 867.781 792.721 867.696 792.55 867.696H783.91C783.483 867.696 783.27 867.483 783.27 867.056V863.088C783.27 862.661 783.483 862.448 783.91 862.448H798.31C798.737 862.448 798.95 862.661 798.95 863.088V871.216C798.95 876.123 797.542 879.899 794.726 882.544C791.953 885.189 788.177 886.512 783.398 886.512Z" fill="white"/>
</g>
<defs>
<filter id="filter0_f_6156_15206" x="89.5" y="-111" width="1517" height="1517" filterUnits="userSpaceOnUse" color-interpolation-filters="sRGB">
<feFlood flood-opacity="0" result="BackgroundImageFix"/>
<feBlend mode="normal" in="SourceGraphic" in2="BackgroundImageFix" result="shape"/>
<feGaussianBlur stdDeviation="27.5" result="effect1_foregroundBlur_6156_15206"/>
</filter>
<filter id="filter1_f_6156_15206" x="-509" y="-111" width="1517" height="1517" filterUnits="userSpaceOnUse" color-interpolation-filters="sRGB">
<feFlood flood-opacity="0" result="BackgroundImageFix"/>
<feBlend mode="normal" in="SourceGraphic" in2="BackgroundImageFix" result="shape"/>
<feGaussianBlur stdDeviation="27.5" result="effect1_foregroundBlur_6156_15206"/>
</filter>
<filter id="filter2_d_6156_15206" x="342.1" y="366.1" width="394.8" height="352.8" filterUnits="userSpaceOnUse" color-interpolation-filters="sRGB">
<feFlood flood-opacity="0" result="BackgroundImageFix"/>
<feColorMatrix in="SourceAlpha" type="matrix" values="0 0 0 0 0 0 0 0 0 0 0 0 0 0 0 0 0 0 127 0" result="hardAlpha"/>
<feOffset/>
<feGaussianBlur stdDeviation="11.45"/>
<feComposite in2="hardAlpha" operator="out"/>
<feColorMatrix type="matrix" values="0 0 0 0 0 0 0 0 0 0 0 0 0 0 0 0 0 0 0.25 0"/>
<feBlend mode="normal" in2="BackgroundImageFix" result="effect1_dropShadow_6156_15206"/>
<feBlend mode="normal" in="SourceGraphic" in2="effect1_dropShadow_6156_15206" result="shape"/>
</filter>
<linearGradient id="paint0_linear_6156_15206" x1="1417.5" y1="97" x2="848" y2="578.5" gradientUnits="userSpaceOnUse">
<stop stop-color="#9945FF"/>
<stop offset="1" stop-color="#9945FF" stop-opacity="0"/>
</linearGradient>
<linearGradient id="paint1_linear_6156_15206" x1="-320" y1="97" x2="249.5" y2="578.5" gradientUnits="userSpaceOnUse">
<stop stop-color="#6CF9D8"/>
<stop offset="1" stop-color="#6CF9D8" stop-opacity="0"/>
</linearGradient>
<linearGradient id="paint2_linear_6156_15206" x1="-1482" y1="542.5" x2="1713" y2="542.5" gradientUnits="userSpaceOnUse">
<stop stop-color="#6CF9D8" stop-opacity="0"/>
<stop offset="0.216346" stop-color="#6CF9D8"/>
<stop offset="0.798077" stop-color="#6CF9D8"/>
<stop offset="1" stop-color="#6CF9D8" stop-opacity="0"/>
</linearGradient>
<linearGradient id="paint3_linear_6156_15206" x1="394.458" y1="703.335" x2="675.531" y2="381.152" gradientUnits="userSpaceOnUse">
<stop offset="0.08" stop-color="#9945FF"/>
<stop offset="0.3" stop-color="#8752F3"/>
<stop offset="0.5" stop-color="#5497D5"/>
<stop offset="0.6" stop-color="#43B4CA"/>
<stop offset="0.72" stop-color="#28E0B9"/>
<stop offset="0.97" stop-color="#19FB9B"/>
</linearGradient>
<clipPath id="clip0_6156_15206">
<rect width="1080" height="1080" fill="white"/>
</clipPath>
</defs>
</svg>
