<svg width="2560" height="2560" viewBox="0 0 2560 2560" fill="none" xmlns="http://www.w3.org/2000/svg">
<rect width="2560" height="2560" fill="black"/>
<rect width="2560" height="2560" fill="black"/>
<g filter="url(#filter0_d_6227_15)">
<path d="M2040.96 1670.78L1787.07 1938.55C1781.57 1944.35 1774.92 1948.98 1767.52 1952.15C1760.13 1955.33 1752.15 1956.98 1744.08 1957H540.49C534.762 1956.97 529.167 1955.3 524.383 1952.2C519.6 1949.1 515.834 1944.71 513.545 1939.54C511.255 1934.38 510.539 1928.67 511.485 1923.11C512.431 1917.55 514.997 1912.39 518.872 1908.24L772.45 1640.47C777.953 1634.67 784.606 1630.04 792 1626.87C799.394 1623.69 807.371 1622.04 815.438 1622.02H2019.03C2024.82 1621.91 2030.52 1623.48 2035.4 1626.54C2040.29 1629.6 2044.15 1634.01 2046.49 1639.23C2048.83 1644.44 2049.56 1650.21 2048.57 1655.83C2047.59 1661.44 2044.94 1666.64 2040.96 1670.78ZM1787.07 1131.41C1781.55 1125.63 1774.89 1121.02 1767.5 1117.85C1760.11 1114.68 1752.15 1113.01 1744.08 1112.95H540.49C534.75 1112.96 529.136 1114.61 524.335 1117.7C519.534 1120.79 515.754 1125.2 513.46 1130.38C511.166 1135.55 510.455 1141.27 511.417 1146.84C512.378 1152.4 514.969 1157.57 518.872 1161.71L772.45 1429.66C777.975 1435.44 784.633 1440.05 792.022 1443.22C799.411 1446.39 807.376 1448.06 815.438 1448.11H2019.03C2024.75 1448.06 2030.33 1446.38 2035.09 1443.27C2039.86 1440.16 2043.6 1435.76 2045.88 1430.6C2048.15 1425.44 2048.86 1419.74 2047.91 1414.2C2046.96 1408.65 2044.39 1403.49 2040.52 1399.35L1787.07 1131.41ZM540.49 939.047H1744.08C1752.15 939.024 1760.13 937.375 1767.52 934.201C1774.92 931.027 1781.57 926.396 1787.07 920.593L2040.96 652.768C2043.91 649.662 2046.14 645.955 2047.47 641.911C2048.81 637.866 2049.23 633.581 2048.69 629.361C2048.16 625.14 2046.69 621.087 2044.39 617.487C2042.08 613.887 2039.01 610.828 2035.37 608.528C2030.5 605.463 2024.81 603.889 2019.03 604.006H815.438C807.371 604.029 799.394 605.678 792 608.852C784.606 612.026 777.953 616.657 772.45 622.46L518.872 890.285C514.969 894.424 512.378 899.594 511.417 905.161C510.455 910.727 511.166 916.448 513.46 921.624C515.754 926.799 519.534 931.204 524.335 934.299C529.136 937.393 534.75 939.043 540.49 939.047Z" fill="url(#paint0_linear_6227_15)"/>
</g>
<defs>
<filter id="filter0_d_6227_15" x="488.1" y="581.1" width="1583.8" height="1398.8" filterUnits="userSpaceOnUse" color-interpolation-filters="sRGB">
<feFlood flood-opacity="0" result="BackgroundImageFix"/>
<feColorMatrix in="SourceAlpha" type="matrix" values="0 0 0 0 0 0 0 0 0 0 0 0 0 0 0 0 0 0 127 0" result="hardAlpha"/>
<feOffset/>
<feGaussianBlur stdDeviation="11.45"/>
<feComposite in2="hardAlpha" operator="out"/>
<feColorMatrix type="matrix" values="0 0 0 0 0 0 0 0 0 0 0 0 0 0 0 0 0 0 0.25 0"/>
<feBlend mode="normal" in2="BackgroundImageFix" result="effect1_dropShadow_6227_15"/>
<feBlend mode="normal" in="SourceGraphic" in2="effect1_dropShadow_6227_15" result="shape"/>
</filter>
<linearGradient id="paint0_linear_6227_15" x1="640.816" y1="1989.32" x2="1879.56" y2="569.494" gradientUnits="userSpaceOnUse">
<stop offset="0.08" stop-color="#9945FF"/>
<stop offset="0.3" stop-color="#8752F3"/>
<stop offset="0.5" stop-color="#5497D5"/>
<stop offset="0.6" stop-color="#43B4CA"/>
<stop offset="0.72" stop-color="#28E0B9"/>
<stop offset="0.97" stop-color="#19FB9B"/>
</linearGradient>
</defs>
</svg>
